<?xml version="1.0" standalone="no"?>
<!DOCTYPE svg PUBLIC "-//W3C//DTD SVG 20010904//EN"
 "http://www.w3.org/TR/2001/REC-SVG-20010904/DTD/svg10.dtd">
<svg version="1.0" xmlns="http://www.w3.org/2000/svg"
 width="1000.000000pt" height="990.000000pt" viewBox="0 0 1000.000000 990.000000"
 preserveAspectRatio="xMidYMid meet">
<metadata>
Created by potrace 1.15, written by Peter Selinger 2001-2017
</metadata>
<g transform="translate(0.000000,990.000000) scale(0.100000,-0.100000)"
fill="#000000" stroke="none">
<path d="M0 4950 l0 -4950 5000 0 5000 0 0 4950 0 4950 -5000 0 -5000 0 0
-4950z m7788 4855 c19 3 26 -4 24 -26 -1 -3 11 -4 25 -1 22 4 24 3 15 -14 -7
-13 -6 -24 5 -40 15 -24 10 -64 -8 -64 -6 0 -8 -4 -4 -9 3 -5 0 -13 -6 -17 -7
-4 -9 -3 -6 3 6 9 -21 19 -70 25 -7 1 -10 5 -8 9 3 3 -2 12 -10 19 -8 7 -13
16 -10 20 3 5 1 11 -5 15 -5 3 -10 11 -10 17 0 7 6 6 15 -2 8 -7 15 -22 15
-33 0 -11 3 -18 6 -14 12 12 -6 56 -27 62 -11 4 -18 9 -15 12 3 4 0 13 -7 22
-11 14 -10 14 6 2 17 -13 31 -9 33 10 3 22 5 23 12 12 4 -7 18 -11 30 -8z
m-6874 -59 c-7 -19 22 -39 46 -31 11 3 20 11 20 16 0 11 -22 7 -32 -6 -5 -6
-8 -5 -8 3 0 7 -5 10 -11 6 -7 -4 -10 -1 -7 7 3 8 12 13 21 13 9 -1 14 3 11 8
-4 6 2 8 12 6 11 -2 19 -10 19 -18 0 -8 10 -16 23 -18 18 -3 22 -8 17 -25 -6
-21 -6 -21 6 -2 7 11 13 21 15 23 5 7 64 -29 64 -39 0 -19 -33 -22 -46 -4 -12
17 -13 16 -12 -6 2 -42 -2 -49 -21 -49 -27 0 -36 17 -19 37 12 15 11 15 -12 0
-26 -18 -95 -24 -85 -7 3 5 0 7 -8 5 -7 -3 -19 5 -27 20 -11 21 -11 27 3 43
10 10 17 24 17 31 0 7 4 10 10 6 5 -3 7 -12 4 -19z m4961 -218 c-4 -13 -17
-34 -29 -48 -11 -14 -17 -21 -12 -17 6 4 18 -9 28 -30 l19 -38 -26 -22 c-30
-26 -62 -29 -91 -8 -12 8 -23 13 -25 11 -10 -10 -8 62 2 87 13 30 19 33 36 16
7 -7 19 -8 30 -4 10 5 21 8 25 7 4 -1 5 5 2 12 -3 8 4 24 15 35 27 27 34 26
26 -1z m-1721 -32 c-7 -19 15 -31 29 -16 9 10 9 11 0 6 -14 -8 -27 10 -13 19
5 3 20 -1 34 -10 15 -10 26 -12 30 -6 4 6 13 8 21 5 8 -4 13 -10 10 -14 -3 -5
3 -13 12 -19 14 -8 15 -10 3 -11 -13 0 -13 -1 0 -10 8 -5 10 -10 3 -10 -7 0
-9 -9 -6 -22 3 -13 3 -21 0 -18 -3 3 -7 14 -9 25 -1 11 -7 23 -13 27 -6 5 -5
8 3 8 7 0 10 5 7 10 -12 20 -24 -1 -19 -33 5 -35 -26 -97 -48 -97 -10 0 -10 2
0 9 10 6 5 12 -18 21 -17 7 -35 20 -40 30 -7 13 -7 75 0 128 0 2 4 1 10 -3 5
-3 7 -12 4 -19z m-781 -269 c4 3 7 1 7 -5 0 -6 8 -12 18 -14 14 -3 12 -8 -14
-31 -17 -15 -39 -34 -50 -42 -10 -8 -14 -15 -8 -15 5 0 20 9 31 20 15 13 23
16 26 7 3 -9 10 -9 32 1 26 12 27 12 15 -3 -11 -14 -10 -19 8 -38 19 -18 25
-20 42 -9 28 17 32 15 18 -8 -16 -25 -33 -25 -57 -1 -18 18 -19 18 -31 -5 -7
-13 -16 -21 -20 -19 -5 3 -11 -2 -14 -11 -5 -13 -2 -15 13 -11 14 3 18 1 14
-9 -7 -18 -23 -14 -45 11 -9 11 -17 16 -18 11 0 -10 -29 24 -30 35 0 4 12 6
28 7 46 0 52 2 52 13 0 5 -6 7 -12 3 -28 -17 -87 -2 -84 21 3 20 16 32 16 15
0 -7 2 -11 5 -8 8 8 -6 39 -15 33 -5 -3 -12 0 -16 6 -4 7 -3 9 3 6 6 -4 14 5
18 20 5 21 8 24 15 13 7 -12 10 -11 16 3 4 12 10 15 19 7 6 -5 15 -7 18 -3z
m-786 -23 c7 -1 15 2 19 7 12 19 24 -3 13 -24 -9 -20 -8 -19 9 2 19 24 20 24
30 4 6 -11 9 -23 6 -26 -3 -3 1 -18 9 -34 13 -25 13 -30 -1 -43 -9 -8 -20 -16
-24 -16 -5 -1 -9 -2 -10 -4 -2 -1 -21 -3 -43 -5 -32 -3 -35 -2 -17 5 12 5 22
14 22 19 0 5 3 16 6 25 5 13 0 15 -27 10 -19 -4 -39 -10 -44 -15 -15 -11 -12
28 5 73 8 22 18 34 24 30 6 -3 17 -7 23 -8z m2103 -311 c34 -53 36 -72 15
-113 -16 -31 -29 -41 -19 -15 4 10 -3 18 -21 25 -15 6 -30 8 -33 6 -2 -3 7 -8
22 -12 14 -3 26 -10 26 -14 0 -19 -34 -40 -64 -40 -34 0 -46 7 -86 53 l-25 29
26 -7 c15 -4 29 -3 32 2 3 5 -10 8 -29 8 -19 -1 -37 2 -40 6 -7 12 15 50 39
70 19 15 22 15 44 -9 13 -14 23 -31 23 -38 0 -32 52 -27 70 7 6 11 7 19 3 18
-46 -8 -71 17 -53 52 17 31 38 22 70 -28z m-3764 -15 c-11 18 2 15 36 -9 23
-17 32 -19 41 -10 9 9 8 11 -4 6 -10 -4 -20 -2 -24 4 -7 12 22 10 42 -2 6 -4
18 -4 27 -1 11 4 17 -3 24 -28 5 -18 5 -35 0 -36 -4 -2 -5 -9 -1 -15 3 -7 3
-9 -2 -5 -4 4 -14 3 -21 -3 -8 -6 -21 -9 -29 -5 -9 3 -15 1 -14 -7 3 -23 -1
-37 -10 -37 -6 0 -9 11 -8 24 1 14 -1 24 -4 23 -3 -1 -13 4 -23 12 -13 11 -14
16 -4 29 10 12 7 11 -14 -2 -34 -22 -46 -15 -44 26 2 18 -2 42 -7 53 -8 17 -5
16 18 -5 16 -14 25 -19 21 -12z m4476 5 c32 -15 37 -22 33 -41 -3 -12 -2 -21
2 -20 5 0 16 -2 26 -7 11 -4 23 -3 29 3 16 16 41 3 27 -14 -6 -8 -16 -11 -23
-7 -7 4 -6 1 1 -9 7 -8 10 -18 6 -21 -10 -10 -35 -8 -29 2 8 12 -34 1 -59 -16
-14 -10 -16 -13 -4 -13 8 0 20 5 27 12 6 6 15 9 18 5 4 -3 -5 -12 -19 -18 -21
-9 -30 -9 -41 0 -8 7 -23 10 -33 7 -10 -3 -25 -1 -33 5 -12 9 -12 10 4 5 10
-4 25 -1 32 5 7 6 19 7 26 3 10 -5 10 -4 1 6 -7 7 -17 9 -25 4 -15 -10 -68
-12 -62 -2 2 3 -1 8 -8 10 -13 5 -2 28 13 28 6 0 8 -4 4 -9 -9 -15 13 -24 41
-17 42 11 27 41 -20 41 -48 0 -55 16 -22 50 30 30 38 30 88 8z m-352 -300 c29
-24 30 -27 14 -36 -13 -7 -21 -5 -31 9 -7 10 -13 13 -13 8 0 -6 5 -15 12 -22
9 -9 9 -12 0 -12 -6 0 -16 8 -21 18 -6 9 -11 12 -11 6 0 -23 27 -36 51 -24 20
11 21 10 15 -14 -4 -17 -2 -26 5 -26 18 0 5 -10 -22 -16 -56 -14 -85 -15 -101
-2 -21 16 -31 65 -17 89 8 15 6 18 -8 14 -10 -3 0 3 22 14 54 26 68 26 105 -6z
m381 -267 c0 -3 11 -17 24 -30 14 -14 25 -37 25 -51 0 -27 -9 -32 -28 -13 -9
9 -15 9 -24 -1 -11 -10 -9 -11 5 -5 15 6 16 3 7 -21 -6 -15 -8 -36 -5 -46 7
-22 -6 -24 -37 -8 -17 9 -18 13 -7 20 13 8 12 9 -16 9 -3 0 -5 -3 -4 -6 1 -8
-22 -24 -34 -24 -5 0 -5 9 -2 20 4 12 2 20 -5 20 -11 0 -31 41 -24 49 2 3 11
-4 19 -15 11 -14 14 -15 9 -2 -6 18 21 78 36 78 6 0 10 -4 10 -10 0 -5 -5 -10
-11 -10 -6 0 -9 -10 -7 -22 3 -25 33 -32 33 -8 0 8 7 20 15 27 12 10 13 14 2
25 -11 11 -12 10 -7 -4 4 -11 2 -18 -4 -18 -19 0 -12 32 9 37 11 3 17 10 13
17 -3 6 -3 8 1 4 4 -3 7 -9 7 -12z m-381 -36 c27 -14 35 -65 16 -95 -9 -14
-13 -25 -9 -25 5 -1 -5 -8 -20 -16 -20 -11 -32 -12 -41 -5 -7 6 -15 8 -18 6
-3 -3 -17 0 -31 6 -24 11 -25 13 -11 34 8 12 11 24 8 28 -3 3 0 13 7 22 49 59
62 65 99 45z m-3724 -216 c-17 -17 -21 -34 -8 -34 5 0 17 9 27 20 10 11 22 20
28 20 5 0 -1 -9 -14 -20 -19 -15 -21 -19 -7 -20 9 0 26 -12 37 -27 13 -17 18
-21 14 -9 -4 13 -2 17 8 14 8 -3 13 -16 12 -29 -1 -13 1 -18 3 -11 3 6 13 12
21 12 11 0 14 -7 10 -22 l-6 -23 16 23 c24 34 30 27 31 -33 0 -42 -3 -55 -14
-55 -9 0 -12 4 -9 10 3 6 -1 7 -10 4 -11 -5 -14 -2 -9 10 7 18 -12 46 -30 46
-6 0 -3 -5 7 -11 20 -12 23 -39 5 -39 -10 0 -10 -2 -1 -8 15 -10 5 -52 -12
-52 -13 0 -30 28 -27 43 1 4 -4 6 -11 5 -7 -2 -12 8 -13 25 -1 36 -17 51 -52
52 -26 0 -27 2 -24 44 3 47 17 81 33 81 6 0 3 -7 -5 -16z m2427 -18 c5 18 5
18 6 -1 0 -11 -13 -35 -30 -52 -16 -18 -26 -33 -22 -33 4 0 20 14 35 32 l26
33 25 -23 c16 -15 23 -30 20 -43 -3 -10 0 -19 6 -19 6 0 10 3 9 8 -3 8 5 12
26 12 22 0 28 -29 11 -53 -8 -12 -15 -16 -15 -9 0 6 -5 12 -11 12 -5 0 -7 -5
-3 -12 4 -7 3 -8 -5 -4 -15 10 -3 29 15 22 8 -3 14 -1 14 3 0 16 -31 21 -36 6
-4 -8 -9 -13 -13 -11 -4 3 -13 0 -21 -6 -12 -8 -12 -9 3 -4 20 6 22 -4 5 -24
-11 -12 -10 -12 2 -3 13 10 18 8 28 -8 7 -11 21 -19 32 -17 10 2 19 -1 20 -6
1 -15 -28 -15 -40 -1 -6 8 -20 12 -30 10 -21 -4 -55 29 -46 44 3 5 -9 14 -28
21 -41 13 -52 36 -31 60 11 12 13 20 6 25 -6 3 -11 11 -11 17 0 7 6 6 15 -2
13 -11 14 -8 9 21 -5 34 -5 34 9 10 14 -23 15 -24 20 -5z m-342 -20 c5 3 9 2
8 -3 -1 -4 3 -21 9 -36 7 -16 12 -32 12 -36 0 -4 9 -16 20 -26 31 -28 8 -44
-30 -20 -13 8 -13 7 -1 -8 7 -9 18 -14 23 -11 6 4 8 -2 6 -12 -3 -16 -12 -19
-53 -19 -43 1 -50 4 -50 20 0 11 10 24 23 31 31 15 38 24 14 17 -28 -7 -62 14
-62 37 0 11 4 20 8 20 5 0 17 7 28 16 10 8 13 13 7 9 -9 -4 -13 2 -13 17 0 17
3 19 9 9 7 -11 11 -8 17 10 l8 24 4 -23 c2 -12 8 -20 13 -16z m-776 -36 c4 0
4 4 1 8 -2 4 4 8 15 8 17 0 15 -5 -13 -28 -33 -28 -33 -29 0 -32 24 -1 54 -25
46 -37 -3 -5 -15 -4 -27 2 -17 8 -16 5 5 -13 17 -14 27 -32 26 -45 -1 -13 -3
-23 -3 -23 0 0 -18 9 -40 20 -22 11 -47 18 -56 15 -17 -6 -19 11 -8 54 2 7 -3
16 -11 18 -11 3 -12 2 -3 -4 8 -6 -2 -9 -28 -10 -41 -2 -41 -2 -35 30 4 18 7
37 8 43 1 12 7 13 56 18 17 1 35 6 39 10 4 4 11 -2 15 -14 4 -11 10 -20 13
-20z m5554 -19 c11 -11 22 -17 25 -13 4 3 19 -4 35 -16 25 -18 28 -18 24 -4
-2 9 3 26 11 37 15 20 15 20 17 -5 1 -14 3 -38 5 -53 2 -24 0 -27 -17 -22 -12
4 -21 1 -25 -9 -3 -8 -13 -13 -22 -10 -9 3 -7 -1 6 -7 12 -7 22 -16 22 -21 0
-12 -18 -10 -25 3 -5 6 -11 5 -18 -5 -12 -16 -62 -12 -52 5 3 4 -7 7 -22 6
-41 -3 -42 32 -4 71 26 25 28 32 16 42 -10 8 -20 9 -37 0 -22 -11 -22 -10 -4
4 26 21 42 20 65 -3z m-4841 -233 c7 -7 12 -22 12 -34 0 -12 7 -24 15 -28 10
-4 18 6 25 36 9 30 14 38 23 29 8 -8 7 -20 -5 -44 -14 -30 -14 -34 0 -43 8 -6
16 -19 16 -30 1 -10 6 -25 10 -32 13 -22 -4 -29 -20 -8 -11 15 -16 17 -28 7
-8 -7 -20 -10 -25 -6 -6 3 -18 2 -28 -3 -13 -8 -11 -10 13 -8 16 1 34 5 41 9
16 10 27 -11 13 -27 -8 -11 -8 -15 2 -20 7 -3 0 -3 -17 1 -34 6 -76 30 -73 41
0 4 -2 15 -7 25 -7 18 17 67 34 67 11 0 -10 62 -24 72 -7 5 -6 8 1 8 5 0 15
-5 22 -12z m899 -54 c13 -21 14 -30 5 -45 -16 -25 -15 -34 2 -20 11 9 16 9 22
0 4 -7 0 -17 -10 -25 -11 -8 -13 -13 -5 -16 18 -6 1 -47 -19 -44 -9 2 -18 8
-18 14 -1 7 -2 16 -3 22 0 5 -10 6 -23 2 -28 -10 -48 -10 -48 1 0 4 0 12 0 19
0 6 7 3 15 -8 13 -16 14 -16 9 -1 -3 9 -2 23 4 30 8 9 4 15 -15 24 -25 12 -25
12 -8 -7 22 -24 9 -27 -16 -4 -17 15 -17 18 -1 43 22 34 32 41 64 41 19 0 33
-8 45 -26z m-1312 -214 c-3 -6 1 -7 9 -4 9 4 16 1 16 -6 0 -10 3 -10 15 0 19
16 32 5 16 -14 -9 -11 -9 -14 3 -12 8 0 15 -3 16 -9 1 -5 6 -16 12 -22 8 -10
6 -13 -8 -13 -15 0 -16 -2 -5 -9 10 -7 23 -3 39 10 14 11 27 17 30 14 8 -8
-19 -35 -35 -35 -8 0 -11 -4 -8 -10 3 -5 2 -10 -4 -10 -5 0 -11 5 -13 12 -3 7
-12 6 -30 -6 -48 -31 -174 2 -140 36 7 7 12 20 12 29 0 9 15 26 33 37 36 23
51 27 42 12z m-2305 -70 c20 -20 29 -66 10 -55 -5 3 -10 -3 -10 -15 0 -14 -4
-19 -12 -14 -8 5 -9 2 -3 -12 9 -22 10 -62 1 -71 -3 -4 -12 2 -20 12 -9 13
-20 16 -39 11 -16 -4 -27 -2 -27 4 0 5 4 10 9 10 11 0 8 56 -3 67 -5 4 -5 -3
-2 -17 6 -19 5 -21 -3 -10 -16 23 -14 70 4 70 8 0 15 5 15 11 0 5 -6 7 -12 4
-7 -4 -4 1 6 9 27 22 62 20 86 -4z m7624 5 c18 -19 31 -78 21 -102 -6 -15 -9
-13 -21 12 -8 17 -12 22 -9 12 15 -56 16 -67 6 -67 -7 0 -15 10 -20 22 -8 21
-9 20 -22 -15 -8 -24 -19 -37 -31 -37 -10 0 -17 3 -17 8 3 19 -2 33 -11 27 -5
-3 -10 -1 -10 4 0 17 18 13 28 -5 10 -18 32 -11 32 9 0 8 -3 7 -9 -2 -7 -11
-10 -9 -16 8 -3 12 -11 19 -16 16 -5 -4 -9 0 -10 7 0 10 -2 10 -6 0 -2 -6 -8
-10 -13 -7 -4 3 -6 -3 -3 -14 3 -10 0 -22 -6 -26 -8 -4 -10 4 -8 27 6 51 29
91 57 99 14 4 21 8 15 8 -13 2 25 31 41 31 7 0 19 -7 28 -15z m1458 -263 c-3
-26 2 -44 16 -59 10 -13 22 -19 26 -16 4 4 4 0 0 -10 -3 -9 -8 -17 -10 -17
-11 0 -44 68 -44 90 -1 22 -2 23 -11 7 -14 -23 -4 -51 30 -84 15 -16 26 -34
25 -41 -1 -7 0 -8 3 -2 2 5 9 8 14 4 5 -3 9 0 9 5 0 6 -5 11 -11 11 -5 0 -7 5
-4 10 4 6 10 8 14 6 4 -3 14 6 21 19 11 21 30 34 30 21 0 -15 -14 -35 -21 -30
-5 3 -9 1 -9 -5 0 -26 20 -17 31 14 7 19 17 35 21 35 11 0 10 -7 -7 -40 -16
-31 -11 -37 15 -20 11 7 11 10 2 10 -10 0 -10 5 -2 20 13 25 32 27 23 3 -5
-14 -3 -15 7 -6 7 6 13 25 15 42 3 42 10 47 29 19 18 -27 15 -71 -6 -96 -9 -9
-14 -22 -11 -28 2 -6 -8 -16 -22 -22 -15 -7 -24 -8 -20 -2 3 5 1 10 -5 10 -6
0 5 15 24 34 24 22 36 42 36 60 0 16 -4 25 -10 21 -5 -3 -10 -12 -10 -19 0 -7
-18 -29 -41 -49 l-40 -37 20 -22 c36 -38 21 -57 -25 -33 -16 8 -35 15 -41 15
-23 0 -14 19 17 35 32 17 39 32 15 32 -8 0 -15 -4 -15 -8 0 -4 -20 -19 -45
-32 -48 -27 -54 -25 -30 10 12 18 13 24 2 35 -45 46 -57 90 -37 129 18 33 36
23 32 -19z m-182 7 c0 -5 5 -7 10 -4 13 8 13 -31 0 -55 -5 -10 -34 -32 -65
-49 -58 -33 -65 -40 -38 -37 11 1 22 -12 31 -37 20 -51 10 -56 -29 -16 -18 19
-30 26 -26 16 3 -9 2 -17 -4 -17 -6 0 -7 -4 -4 -10 11 -17 -3 -11 -31 15 -15
14 -24 31 -21 39 3 8 0 20 -8 26 -10 9 -20 7 -40 -6 -23 -15 -28 -15 -36 -3
-15 23 -6 51 23 72 35 26 49 14 20 -16 -12 -13 -22 -30 -22 -38 0 -11 2 -12 9
-1 4 8 10 13 12 12 2 -1 12 2 21 5 9 4 29 0 44 -8 25 -13 29 -12 55 10 15 14
33 38 39 54 13 29 37 42 26 13 -3 -9 -2 -12 4 -9 6 4 10 12 9 18 -3 24 1 37
11 37 6 0 10 -5 10 -11z m292 -314 c2 2 4 -4 4 -15 0 -10 -3 -17 -6 -15 -4 2
-7 -3 -7 -12 0 -13 4 -12 17 5 12 14 21 17 31 11 8 -5 10 -9 5 -9 -5 0 -3 -6
3 -13 6 -8 8 -17 4 -20 -8 -9 17 -38 31 -36 28 3 43 -2 43 -16 0 -8 -6 -16
-14 -19 -7 -3 -12 0 -10 7 1 7 -10 12 -27 12 -21 0 -31 6 -37 23 -5 12 -11 22
-13 22 -3 0 -3 -6 0 -13 7 -18 -22 -42 -31 -27 -4 6 -4 18 -1 26 4 9 2 12 -5
8 -6 -3 -9 -15 -6 -25 9 -34 -9 -29 -51 16 -23 25 -42 47 -42 50 0 2 16 15 37
29 26 18 41 22 53 16 10 -5 19 -7 22 -5z m-3597 -69 c17 -4 37 -8 46 -9 13 -1
14 -8 8 -36 -5 -23 -4 -40 4 -50 10 -11 8 -13 -10 -7 -14 4 -37 0 -62 -13 -23
-10 -39 -15 -35 -10 3 5 -4 9 -15 9 -11 0 -22 4 -26 10 -3 5 -12 7 -20 4 -13
-5 -13 0 0 42 8 26 11 52 8 57 -3 5 4 4 16 -2 17 -10 23 -8 33 8 7 11 15 17
18 12 3 -4 19 -11 35 -15z m794 9 c18 9 30 11 26 5 -4 -7 2 -18 15 -27 17 -12
21 -22 17 -43 -3 -15 -1 -33 6 -40 10 -10 8 -11 -8 -6 -19 5 -87 -13 -101 -27
-3 -3 -15 3 -26 13 -11 10 -26 16 -34 13 -10 -4 -11 3 -3 32 6 20 8 43 5 50
-3 9 2 11 15 8 15 -4 22 0 26 16 5 19 7 20 17 5 12 -15 15 -15 45 1z m1514
-33 c3 10 9 10 23 2 19 -11 29 -11 81 0 28 6 32 4 45 -30 15 -37 15 -38 -14
-62 -19 -16 -34 -22 -46 -16 -9 4 -21 6 -25 5 -4 0 -17 4 -29 10 -16 8 -19 8
-13 -1 5 -8 3 -11 -6 -8 -8 3 -15 14 -15 26 -1 12 -9 33 -18 46 -20 31 -21 42
-2 27 11 -9 15 -9 19 1z m-5923 -212 c23 -23 25 -49 6 -75 -9 -12 -19 -16 -31
-11 -18 7 -18 6 -1 -13 18 -19 47 -32 110 -46 l29 -6 -49 -25 c-29 -15 -50
-20 -52 -14 -2 6 -13 15 -25 21 -20 9 -21 9 -4 -4 11 -10 14 -18 8 -22 -13 -8
-51 12 -51 27 0 7 -5 6 -15 -2 -9 -7 -18 -10 -21 -7 -9 8 27 58 37 51 5 -3 9
6 9 20 0 14 -4 27 -10 27 -5 1 -15 2 -20 3 -13 1 -30 26 -30 44 0 21 39 52 65
52 14 0 34 -9 45 -20z m2354 -39 c-22 -17 -22 -18 -2 -30 16 -10 19 -10 12 0
-5 9 -2 10 11 5 15 -5 16 -4 5 9 -22 26 4 43 30 20 11 -10 20 -24 20 -31 0 -8
13 -20 28 -28 42 -22 56 -41 43 -63 -6 -10 -11 -12 -11 -6 0 15 -48 48 -57 39
-3 -3 1 -14 10 -23 36 -41 13 -67 -27 -31 -22 20 -42 23 -50 9 -4 -5 -14 -8
-24 -6 -20 3 -17 26 5 38 12 8 12 11 -4 23 -16 13 -16 13 8 5 26 -9 39 -6 39
10 0 5 -6 6 -14 3 -8 -3 -20 1 -27 9 -12 13 -18 13 -44 0 -16 -9 -33 -21 -37
-27 -4 -6 -6 -1 -5 12 0 12 6 23 12 24 5 0 15 2 20 3 6 2 15 3 20 4 6 0 11 10
12 22 3 30 23 53 37 39 8 -8 5 -16 -10 -29z m424 27 c7 -7 8 -17 2 -29 -15
-28 18 -62 53 -54 26 7 40 28 15 23 -7 -2 -12 3 -10 10 2 14 -14 16 -23 2 -3
-5 -1 -10 4 -10 6 0 11 -4 11 -8 0 -10 -30 -12 -31 -3 0 3 -2 16 -5 28 -5 27
27 47 62 40 14 -2 27 0 30 4 3 5 13 9 22 9 15 -1 15 -2 -2 -15 -10 -7 -15 -18
-12 -24 4 -5 9 -34 11 -63 3 -29 6 -64 7 -77 4 -36 -19 -36 -41 0 -23 37 -20
50 9 44 12 -2 18 0 15 6 -4 5 -10 7 -15 4 -5 -3 -11 -1 -15 5 -3 5 1 10 9 10
8 0 18 4 21 10 8 13 -26 1 -47 -18 -27 -23 -67 -8 -75 28 -3 17 -10 33 -16 37
-5 3 -7 1 -4 -4 8 -12 -17 -36 -26 -26 -4 3 -7 1 -7 -6 0 -7 -4 -9 -10 -6 -5
3 -7 0 -4 -8 3 -8 -2 -19 -10 -26 -13 -11 -15 -10 -11 8 2 11 -1 24 -7 27 -6
4 -8 2 -4 -4 3 -6 1 -14 -5 -17 -7 -5 -10 0 -7 11 2 11 12 19 22 19 11 0 20 8
22 18 4 26 32 67 47 67 7 0 18 -5 25 -12z m-3971 -4 c15 -4 22 -13 20 -27 -1
-14 6 -25 21 -32 23 -10 30 -39 12 -50 -5 -3 -10 -1 -10 6 0 7 -2 10 -6 7 -6
-6 30 -70 37 -65 2 1 -2 -4 -10 -11 -18 -15 -26 -7 -45 43 l-15 40 2 -35 2
-35 -47 0 c-25 0 -45 2 -43 4 2 2 -6 12 -18 22 -19 15 -20 20 -8 31 10 9 12 9
7 1 -13 -23 41 -15 70 10 21 18 24 26 14 32 -8 5 -11 4 -7 -2 4 -6 -13 -13
-44 -17 -56 -8 -80 0 -32 10 28 5 106 64 86 64 -5 0 -14 -5 -21 -12 -6 -6 -15
-8 -19 -4 -4 4 -1 11 7 16 18 11 19 11 47 4z m7677 -321 c34 -52 32 -124 -3
-130 -21 -3 -22 -1 -10 14 13 15 12 15 -12 0 -14 -10 -29 -14 -33 -10 -4 5 -6
-1 -4 -12 2 -16 -2 -20 -22 -20 -21 0 -25 5 -26 33 -1 25 2 32 17 32 23 0 24
8 2 32 -9 10 -11 18 -5 18 6 0 9 7 6 15 -8 20 -30 19 -38 -1 -7 -19 1 -34 19
-34 8 0 17 -5 21 -12 5 -7 1 -9 -13 -6 -18 5 -21 1 -18 -21 3 -29 -10 -51 -32
-51 -9 0 -11 5 -7 13 6 9 4 9 -8 -1 -19 -16 -30 -3 -35 40 -2 19 3 31 16 38
13 7 17 16 14 31 -4 15 -3 20 5 15 7 -4 12 -14 12 -23 0 -22 10 -11 15 16 9
48 34 55 59 17 9 -14 23 -23 33 -21 10 2 21 4 25 4 4 1 5 8 2 16 -7 17 -34 21
-34 5 0 -5 -4 -10 -10 -10 -14 0 -13 23 2 38 20 20 37 14 62 -25z m-831 -6
c18 -8 38 -21 45 -30 11 -13 10 -17 -5 -26 -15 -9 -13 -10 12 -6 28 5 28 4 -5
-8 -34 -13 -34 -14 -10 -21 16 -5 20 -9 12 -13 -7 -3 -26 0 -43 7 -23 10 -32
10 -44 0 -20 -17 -12 -24 12 -12 11 7 25 7 33 2 25 -15 -74 -53 -117 -45 -69
13 -102 73 -68 123 28 38 119 53 178 29z m-1623 -17 c20 -20 23 -30 24 -80 1
-14 6 -24 14 -22 6 1 12 -2 12 -8 0 -5 -6 -11 -12 -12 -16 -1 -31 -5 -38 -8
-3 -1 -19 -3 -37 -5 -25 -2 -32 1 -30 14 1 9 -2 16 -8 16 -5 0 -9 -5 -9 -12 1
-9 -3 -9 -17 0 -13 8 -17 18 -12 36 4 18 3 22 -7 16 -9 -6 -10 -3 -1 13 17 32
27 34 27 5 -1 -15 5 -28 14 -30 13 -4 13 -3 0 6 -13 10 -13 11 0 11 13 0 13 1
0 10 -12 8 -13 11 -1 19 11 7 11 9 0 14 -11 4 -10 9 5 21 27 21 52 20 76 -4z
m-3222 -303 c2 -10 -1 -24 -8 -32 -8 -9 -8 -15 0 -20 6 -4 10 -3 9 2 -1 4 2
19 8 32 l9 23 26 -23 c14 -14 25 -34 24 -47 -1 -28 -48 -56 -65 -39 -9 9 -17
8 -31 -1 -26 -16 -27 -16 -33 9 -3 11 -14 23 -25 26 -15 3 -19 13 -18 36 1 17
8 33 15 35 10 3 12 0 8 -11 -4 -11 3 -23 22 -36 22 -16 28 -17 28 -5 0 7 -8
14 -18 14 -23 0 -28 10 -19 35 10 27 63 29 68 2z m-2397 -543 c10 -13 10 -17
-2 -26 -11 -8 -11 -9 3 -5 9 3 22 -1 28 -9 15 -17 34 -19 24 -2 -4 7 -3 8 5 4
6 -4 9 -12 5 -17 -3 -5 4 -26 16 -46 17 -30 18 -34 4 -22 -16 12 -17 12 -12
-2 11 -30 -31 -9 -48 23 -12 23 -13 33 -3 44 7 8 7 14 1 14 -16 0 -23 -30 -11
-52 12 -22 -1 -38 -33 -38 -9 0 -22 -2 -30 -3 -7 -2 -9 -2 -5 1 4 2 1 9 -8 16
-21 15 -12 75 17 111 23 29 31 31 49 9z m5149 -897 c0 -7 11 -13 27 -12 21 0
28 -5 28 -19 0 -11 7 -21 15 -23 13 -4 13 -3 0 6 -8 5 -11 13 -7 18 5 4 12 1
17 -7 12 -18 -23 -52 -44 -44 -7 3 -16 -2 -19 -11 -5 -12 -1 -14 21 -9 15 4
37 12 49 20 18 11 23 11 34 -2 18 -22 19 -37 3 -52 -8 -7 -14 -10 -14 -6 0 3
-7 0 -17 -7 -20 -17 -21 -17 -42 13 -23 33 -59 35 -63 3 -2 -19 -6 -22 -18
-15 -12 8 -12 11 3 28 19 21 11 38 -10 20 -11 -8 -17 -7 -28 8 -27 36 5 56 35
22 13 -15 17 -16 34 -3 11 8 17 18 13 21 -4 4 -13 1 -22 -6 -12 -10 -16 -9
-21 5 -4 9 -2 21 4 27 6 6 8 17 5 24 -3 8 0 14 6 14 6 0 11 -6 11 -13z m1576
-52 c-7 -19 15 -13 52 13 27 20 32 21 32 7 0 -9 -11 -27 -25 -40 -13 -14 -19
-25 -12 -25 7 0 6 -4 -3 -10 -9 -6 -10 -10 -3 -10 6 0 15 5 18 10 4 6 12 10
18 9 29 -3 38 2 33 19 -9 27 16 56 41 48 20 -6 19 -9 -18 -47 -22 -22 -37 -44
-34 -50 11 -17 -5 -30 -25 -19 -21 11 -46 -11 -34 -32 4 -7 4 -10 -1 -6 -4 4
-15 2 -23 -5 -11 -8 -14 -8 -9 0 4 6 3 15 -3 18 -8 5 -8 11 0 20 8 10 3 15
-20 24 -18 6 -29 15 -26 20 4 5 2 12 -4 16 -6 4 -8 11 -4 16 4 7 10 6 18 0 9
-7 12 -4 11 14 0 24 -25 61 -25 38 0 -6 6 -13 13 -16 6 -2 8 -8 4 -13 -10 -10
-27 14 -27 39 0 17 2 17 31 -3 16 -12 28 -28 25 -35z m-658 20 c8 -17 8 -26 1
-31 -8 -4 -7 -9 1 -14 7 -4 9 -13 6 -19 -9 -14 -46 -14 -46 0 0 6 7 8 18 4 14
-5 15 -4 5 6 -15 15 -40 -2 -29 -20 9 -14 39 -14 53 0 13 13 43 5 43 -10 0
-17 -71 -34 -119 -28 -25 3 -38 2 -28 -2 22 -8 19 -24 -6 -28 -10 -2 -16 1
-13 6 3 5 -4 7 -16 3 -14 -3 -19 -1 -14 6 4 7 2 10 -7 6 -8 -3 -20 2 -27 11
-11 13 -11 20 0 43 8 15 13 30 12 35 -1 4 1 6 6 5 4 -1 20 6 36 17 21 14 31
16 34 7 2 -6 14 -12 27 -12 13 0 27 -4 30 -10 10 -17 21 -11 22 12 2 17 0 19
-7 8 -11 -18 -25 -6 -17 15 9 22 22 19 35 -10z m-5630 -322 c6 -12 12 -31 12
-42 0 -10 12 -29 28 -40 22 -17 24 -20 9 -21 -17 0 -17 -2 3 -35 26 -42 18
-44 -33 -10 -40 28 -43 35 -25 53 7 7 8 12 3 12 -6 0 -19 -13 -30 -29 l-19
-29 -18 29 c-10 17 -21 45 -24 64 -4 27 -1 36 16 45 12 6 25 21 30 33 8 21 9
21 9 -5 1 -15 6 -30 11 -33 14 -8 13 -18 -4 -41 -14 -19 -15 -18 -36 6 -19 22
-22 23 -18 5 1 -11 12 -26 23 -33 17 -11 17 -13 2 -8 -12 4 -17 2 -15 -6 8
-25 34 -18 57 13 23 30 23 34 8 63 -8 17 -18 40 -22 51 l-6 20 -14 -20 c-8
-11 -24 -30 -36 -42 -13 -13 -19 -28 -16 -38 4 -9 1 -18 -8 -21 -11 -4 -12
-11 -5 -24 8 -14 5 -19 -13 -24 -12 -3 -35 -6 -52 -6 l-30 1 30 24 c17 14 26
25 20 25 -5 1 2 8 18 16 15 8 27 21 27 29 0 8 9 20 21 27 11 7 30 31 42 53
l21 40 10 -40 c6 -22 17 -50 24 -62z m2707 57 c3 -5 12 -7 19 -4 8 3 27 -1 43
-9 15 -7 35 -12 45 -10 24 6 33 -16 12 -31 -10 -8 -15 -20 -11 -29 4 -10 0
-14 -11 -12 -12 2 -17 11 -16 34 1 17 -2 29 -6 26 -5 -3 -10 1 -13 7 -4 13
-37 -53 -37 -76 -1 -6 -7 0 -15 14 -8 14 -12 37 -9 51 3 19 1 26 -10 26 -18 0
-13 -32 11 -80 14 -28 33 -28 33 -1 0 8 4 12 10 9 6 -3 7 1 4 9 -3 9 -1 16 5
16 6 0 11 -6 11 -14 0 -7 7 -26 14 -42 8 -15 13 -31 10 -35 -2 -4 7 -6 22 -3
17 3 23 1 19 -6 -4 -6 -13 -9 -20 -6 -7 2 -18 -1 -25 -7 -10 -9 -11 -9 -5 2 6
11 4 13 -8 8 -9 -3 -19 -2 -22 3 -3 6 -23 8 -44 6 -38 -4 -45 4 -28 31 4 6 0
30 -9 52 -12 30 -13 44 -4 60 12 23 25 27 35 11z m4349 -41 c4 6 12 9 17 5 6
-3 3 -12 -8 -19 -26 -20 -5 -50 35 -50 18 -1 37 -6 43 -12 9 -9 19 -6 40 10
23 17 32 18 42 8 9 -10 9 -11 -4 -6 -10 4 -19 2 -22 -2 -3 -5 6 -8 21 -8 33 1
52 -12 52 -36 0 -40 -83 -64 -131 -38 -19 10 -19 12 -5 34 15 23 15 23 -19 19
-26 -3 -40 1 -55 16 -11 11 -24 19 -29 18 -5 -2 -9 2 -9 7 0 6 4 9 9 8 5 -2 9
6 9 17 0 11 -5 20 -11 20 -5 0 -7 5 -3 11 5 8 9 8 14 -1 5 -9 9 -9 14 -1z
m-5543 -319 c6 0 7 -5 4 -10 -4 -6 6 -23 22 -38 23 -23 35 -28 67 -26 21 2 41
6 45 10 3 3 -5 4 -18 2 -14 -2 -26 3 -29 11 -3 10 0 12 12 8 11 -4 16 -1 16
11 0 13 4 12 20 -8 19 -25 19 -25 -1 -35 -11 -6 -16 -14 -13 -18 4 -4 2 -7 -5
-7 -7 0 -10 -4 -7 -9 8 -13 -23 -25 -71 -26 -24 -1 -41 3 -40 9 1 6 -6 10 -15
10 -10 -1 -18 2 -18 8 0 5 -6 6 -12 2 -8 -4 -9 -3 -5 2 14 14 41 10 55 -8 7
-10 19 -18 25 -17 8 0 8 2 -1 6 -7 3 -19 18 -27 34 -9 16 -19 28 -23 28 -4 -1
-9 0 -12 1 -22 8 -38 6 -34 -5 6 -15 -12 -30 -20 -16 -9 15 15 72 27 65 8 -4
7 -2 0 7 -17 17 -17 34 0 21 10 -8 16 -5 27 11 l15 22 3 -22 c2 -13 8 -23 13
-23z m-772 -251 c17 -6 31 -15 31 -20 0 -5 6 -9 14 -9 19 0 49 -47 35 -55 -5
-4 -16 -4 -24 -1 -23 9 -28 -14 -8 -36 18 -21 18 -21 -2 -15 -19 7 -19 7 -1
-8 16 -12 17 -17 6 -30 -14 -16 -45 -21 -35 -5 6 10 -13 15 -47 12 -10 -1 -17
2 -16 6 0 4 -2 15 -7 25 -4 10 -2 23 5 33 10 11 10 18 2 26 -13 13 -16 42 -4
34 4 -2 8 4 8 14 0 18 -1 18 -17 2 -9 -9 -15 -20 -13 -24 6 -9 -16 -22 -23
-14 -3 3 0 12 7 21 7 8 9 15 5 15 -8 0 37 39 46 40 3 0 20 -5 38 -11z m6451
-9 c46 -25 47 -160 2 -142 -10 3 -13 1 -8 -6 8 -14 -18 -27 -34 -17 -7 4 -3
16 10 35 24 33 25 44 6 59 -11 9 -15 9 -18 0 -3 -8 -9 -9 -19 -4 -8 5 -21 8
-31 7 -23 -4 -32 16 -16 36 12 15 11 16 -4 3 -10 -7 -18 -19 -18 -27 0 -7 -4
-16 -10 -19 -22 -14 -8 23 22 58 29 33 37 37 66 32 19 -3 42 -10 52 -15z
m-3630 -258 c0 -4 -6 -14 -12 -22 -11 -12 -10 -12 6 0 16 13 20 12 37 -9 11
-13 19 -38 19 -56 0 -28 -6 -36 -32 -49 -39 -20 -38 -20 -39 2 0 10 -3 12 -6
5 -7 -18 -23 -16 -23 2 0 8 -6 12 -14 9 -17 -7 -32 52 -21 84 8 26 85 57 85
34z m-1937 -28 c71 -24 64 -61 -16 -82 -29 -8 -46 -7 -73 4 -23 10 -33 11 -29
4 4 -7 20 -17 35 -24 28 -11 28 -12 10 -34 l-19 -23 -11 21 c-6 12 -17 19 -25
17 -10 -5 -22 10 -42 55 -2 3 7 4 19 1 l23 -5 -23 21 c-28 24 -22 37 21 50 48
14 79 13 130 -5z m-917 -316 c3 -10 10 -16 15 -13 17 11 31 -47 19 -75 l-12
-25 26 28 c29 32 49 34 74 9 10 -10 23 -17 29 -15 6 2 13 -3 16 -12 4 -10 1
-15 -11 -15 -14 0 -14 -2 -3 -9 11 -7 9 -10 -9 -16 -18 -6 -28 -1 -46 21 -17
22 -25 26 -34 17 -9 -8 -8 -11 6 -10 23 2 30 -28 8 -37 -10 -4 -21 0 -29 11
-11 15 -15 15 -29 4 -14 -11 -16 -11 -16 3 0 10 -4 15 -8 12 -4 -2 -8 7 -7 21
0 15 6 28 14 31 9 3 11 0 6 -9 -7 -12 -5 -12 6 -1 20 18 -7 35 -34 20 -13 -7
-22 -7 -30 1 -15 15 -18 59 -5 67 8 5 9 1 5 -10 -4 -10 -3 -15 3 -11 6 3 10
12 10 19 0 20 29 15 36 -6z m1229 12 c-4 -6 -1 -18 6 -26 11 -14 15 -13 31 8
17 22 19 22 29 5 8 -14 14 -16 25 -6 22 18 30 2 10 -20 -14 -15 -15 -24 -6
-40 6 -12 15 -21 20 -21 20 0 8 -16 -29 -42 -26 -18 -42 -23 -49 -16 -7 7 -15
2 -24 -17 l-14 -26 -12 26 c-7 15 -18 25 -25 22 -6 -2 -26 15 -44 37 -35 44
-40 56 -22 56 7 0 27 16 46 35 31 32 73 50 58 25z m3675 -65 c26 -49 -32 -92
-87 -65 -15 7 -32 13 -37 11 -13 -3 -36 20 -36 35 0 8 18 32 41 54 l41 40 32
-25 c18 -14 39 -36 46 -50z m-5735 55 c-6 -10 5 -13 42 -10 23 1 63 -16 76
-34 5 -6 5 -1 2 12 -4 13 -2 22 4 22 14 0 14 -37 1 -45 -6 -4 -8 -16 -5 -26 4
-11 2 -26 -5 -34 -9 -11 -7 -12 10 -8 11 3 23 9 26 14 9 15 27 10 21 -5 -4
-10 0 -12 14 -9 11 3 19 0 19 -6 0 -7 -4 -9 -10 -6 -5 3 -10 -1 -10 -10 0 -9
-4 -13 -10 -10 -6 3 -7 -1 -4 -9 7 -19 -3 -20 -35 -2 -20 11 -30 11 -63 -2
-29 -12 -42 -12 -50 -4 -17 17 -1 27 19 11 17 -12 17 -12 1 6 -14 15 -20 16
-32 5 -14 -10 -18 -8 -28 16 -7 16 -19 29 -25 30 -26 2 -28 4 -29 28 -1 18 3
24 21 24 17 0 22 -5 19 -17 -3 -9 2 -3 11 12 9 15 13 37 10 47 -4 12 -2 20 5
20 6 0 8 -4 5 -10z m-289 -35 c36 -36 31 -92 -11 -116 -38 -22 -50 -23 -69 -3
-18 18 -22 39 -5 28 8 -5 8 -1 0 14 -15 28 -15 53 0 32 7 -10 9 -11 7 -2 -7
27 -23 6 -22 -30 0 -21 -3 -38 -7 -38 -3 0 -7 21 -7 46 -1 36 4 51 23 70 31
31 59 30 91 -1z m1196 -299 c16 -47 16 -50 0 -62 -9 -8 -21 -14 -27 -14 -5 0
1 -10 14 -21 27 -22 21 -39 -6 -18 -16 13 -17 12 -5 -3 10 -13 10 -18 1 -24
-7 -4 -15 -2 -17 4 -2 7 -8 10 -13 6 -5 -3 -17 2 -26 11 -14 14 -14 18 -2 26
8 5 19 9 24 9 6 0 -5 9 -22 20 -18 11 -33 21 -33 23 0 4 33 68 44 85 17 28 50
8 68 -42z m3187 41 c6 -8 8 -17 5 -20 -4 -4 2 -19 12 -34 10 -15 17 -31 16
-35 -1 -5 3 -8 8 -8 6 0 10 7 10 15 0 20 19 19 27 -1 9 -25 -10 -36 -42 -24
-24 9 -26 9 -16 -4 6 -8 16 -28 21 -45 8 -29 7 -31 -17 -31 -16 0 -27 7 -30
20 -3 11 -10 17 -16 13 -6 -4 -25 -8 -42 -10 -25 -3 -32 1 -32 14 -1 28 27 55
43 42 8 -6 14 -7 18 0 4 6 13 8 21 4 8 -3 15 -1 15 5 0 11 -18 11 -37 -1 -6
-4 -15 -1 -20 6 -4 7 -21 13 -38 13 -24 -1 -30 3 -30 19 0 17 6 20 44 19 24
-1 40 1 35 5 -12 8 -11 34 1 43 15 12 31 9 44 -5z m2454 -267 c12 -9 30 -19
40 -23 21 -8 23 -56 2 -58 -8 -1 -21 -2 -27 -3 -8 -1 -12 8 -10 22 3 23 -21
32 -33 12 -3 -5 0 -7 9 -4 22 8 16 -35 -6 -47 -10 -5 -18 -7 -18 -3 0 3 -7 1
-15 -6 -12 -10 -15 -9 -15 5 0 14 -3 15 -15 5 -13 -11 -15 -10 -9 6 4 14 3 16
-4 5 -8 -11 -12 -10 -21 7 -8 16 -7 21 4 26 9 3 12 12 8 23 -5 15 -4 16 8 7
21 -17 58 -23 65 -12 4 6 0 14 -7 19 -20 12 -31 11 -23 -3 5 -7 3 -8 -7 -2 -8
4 -22 10 -33 11 -14 3 -17 -1 -13 -17 4 -17 3 -19 -9 -9 -14 12 -19 41 -8 52
13 13 115 4 137 -13z m-2023 -41 c0 -4 -17 -13 -37 -19 -44 -14 -67 -31 -32
-24 22 5 23 4 6 -9 -16 -13 -16 -15 -2 -21 9 -3 25 -1 36 4 10 6 19 8 19 5 0
-3 0 -7 0 -11 -1 -3 9 -14 22 -25 l23 -19 -29 10 c-16 6 -31 8 -34 5 -3 -3 0
-5 6 -5 7 0 12 -12 12 -27 l0 -26 -23 24 c-13 13 -21 28 -19 33 3 5 0 6 -6 2
-6 -4 -9 -12 -6 -19 3 -8 1 -24 -5 -38 l-9 -24 -7 28 c-4 15 -16 32 -27 38
-15 8 -18 17 -13 39 5 23 2 29 -16 35 l-23 8 27 23 c21 18 37 22 82 21 30 -1
55 -4 55 -8z m-3639 -911 c24 -27 31 -30 39 -18 5 8 12 11 15 8 11 -11 -5 -28
-24 -28 -10 0 -29 8 -42 18 -23 18 -59 35 -59 28 0 -24 35 -76 57 -85 15 -6
36 -16 45 -23 15 -11 21 -9 35 6 10 10 12 16 6 12 -7 -4 -13 -2 -13 3 0 16 20
13 26 -3 8 -22 -14 -55 -41 -62 -13 -3 -26 -12 -29 -20 -3 -8 -10 -14 -16 -14
-6 0 -9 4 -6 9 3 5 -1 14 -8 20 -10 8 -16 9 -21 1 -9 -15 -22 -12 -29 6 -4 9
0 24 9 34 8 9 15 21 15 26 0 5 -5 1 -11 -9 -6 -9 -15 -15 -20 -12 -5 4 -6 11
-3 17 4 6 2 8 -4 4 -15 -9 -27 13 -13 27 6 6 11 15 11 21 0 5 -6 1 -14 -10
-11 -14 -18 -16 -26 -8 -12 11 -4 44 11 44 5 0 11 0 14 0 3 0 14 9 25 20 27
27 36 25 71 -12z m-402 -254 c6 -14 8 -30 5 -36 -4 -7 -2 -8 5 -4 6 4 9 16 6
27 -9 26 1 24 20 -5 15 -23 12 -78 -4 -74 -13 4 -49 -23 -65 -49 l-17 -28 20
23 c10 12 25 22 33 22 9 0 9 -3 2 -8 -6 -4 -10 -25 -10 -46 1 -30 -3 -40 -16
-42 -21 -3 -33 12 -18 21 5 3 15 16 22 28 10 20 8 19 -25 -6 -19 -15 -42 -27
-49 -27 -7 0 -1 8 14 18 20 13 24 22 18 32 -14 22 -12 33 5 26 8 -3 15 -1 15
4 0 5 -18 13 -40 16 -22 4 -40 11 -40 16 0 6 6 8 14 5 16 -6 41 17 33 31 -8
12 10 38 20 29 4 -5 1 -12 -7 -17 -13 -8 -12 -10 3 -10 9 0 17 5 17 11 0 6 7
8 16 5 8 -3 12 -2 9 4 -3 6 -13 10 -21 10 -17 0 -18 22 -2 38 17 17 23 15 37
-14z m3996 -4 c3 -6 18 -8 33 -5 l27 6 -29 -17 -29 -16 24 -19 c13 -10 25 -23
25 -28 1 -6 2 -16 3 -21 0 -6 16 -18 35 -27 38 -17 54 -51 30 -60 -23 -8 -40
13 -25 30 9 12 7 15 -13 19 -22 4 -24 3 -16 -13 15 -27 12 -35 -4 -14 -13 18
-14 17 -9 -10 3 -25 2 -27 -7 -12 -9 14 -15 15 -31 6 -11 -6 -28 -7 -37 -3 -9
4 -19 8 -22 8 -3 1 -11 5 -17 9 -8 5 -13 3 -13 -4 0 -10 -3 -10 -12 0 -10 11
-10 14 0 18 6 3 12 14 12 25 0 27 -25 17 -26 -11 -2 -32 -9 -35 -38 -16 -32
22 -33 30 -1 51 20 13 31 15 50 6 19 -9 25 -8 31 6 4 9 6 20 6 25 -1 4 9 13
23 19 27 12 32 27 13 46 -9 9 -9 12 -1 12 7 0 15 -5 18 -10z m-337 -286 c20
-14 22 -14 22 3 1 17 1 17 11 0 6 -9 7 -27 4 -38 -5 -14 -3 -19 3 -15 6 3 13
2 17 -4 9 -14 -4 -52 -16 -45 -5 4 -9 2 -9 -4 0 -5 -3 -18 -6 -28 -6 -16 -5
-16 10 2 l17 20 -3 -20 c-2 -11 -10 -21 -18 -21 -8 -1 -19 -2 -24 -3 -5 0 -3
-8 4 -16 18 -22 -31 -71 -57 -57 -13 8 -20 6 -29 -6 -7 -9 -18 -13 -28 -9 -23
9 -15 32 10 32 10 0 25 4 32 8 6 5 16 6 21 3 5 -3 14 1 21 9 7 8 9 15 5 15 -5
0 0 9 9 19 10 11 15 25 10 32 -4 7 -3 10 4 5 18 -11 25 50 8 82 -12 23 -21 29
-48 28 -18 -1 -39 -5 -47 -10 -18 -12 45 -39 71 -31 21 7 22 2 8 -26 -15 -26
-30 -24 -68 11 -37 33 -40 34 -62 19 -13 -9 -12 -10 3 -5 19 6 47 -2 47 -14 0
-15 -39 -21 -61 -10 -15 8 -19 9 -15 1 4 -6 2 -11 -3 -11 -6 0 -11 5 -11 10 0
16 38 50 56 50 9 0 27 9 41 20 31 24 42 25 71 4z m-3229 -33 c11 -7 21 -18 21
-26 0 -8 6 -14 13 -12 6 1 12 -4 11 -10 -3 -34 -5 -40 -16 -41 -7 0 -24 -3
-38 -7 -14 -4 -32 -7 -40 -7 -8 0 -26 3 -40 7 -14 4 -31 7 -37 7 -12 1 -14 7
-17 41 -1 6 5 11 12 10 6 -2 12 4 12 12 0 18 46 43 75 39 12 -1 32 -7 44 -13z
m5151 -51 c0 -5 7 -7 15 -4 10 4 19 -4 29 -27 12 -30 12 -35 -2 -45 -10 -7
-14 -16 -9 -20 4 -4 7 -2 7 4 0 7 7 12 15 12 8 0 15 -4 15 -10 0 -6 6 -9 13
-8 6 2 12 -4 12 -12 0 -19 -87 -35 -115 -20 -10 5 -26 10 -34 10 -23 0 -57 37
-50 55 7 18 24 20 24 3 0 -6 14 8 30 30 29 40 50 54 50 32z m362 -20 c29 -33
68 -39 88 -15 21 25 23 10 4 -27 -15 -30 -15 -32 -1 -19 10 7 17 19 17 27 0
18 20 28 31 17 5 -5 7 -18 3 -27 -5 -14 -9 -15 -15 -4 -6 9 -9 9 -9 1 0 -6 7
-19 16 -28 20 -20 16 -24 -36 -36 -48 -11 -100 3 -137 37 -26 24 -30 39 -9 31
9 -4 14 2 14 19 0 13 -4 21 -9 18 -10 -6 -12 19 -2 29 11 12 18 8 45 -23z
m-5902 -272 c13 -29 17 -34 14 -15 -8 38 20 36 39 -2 13 -26 13 -30 0 -35 -8
-4 -19 -3 -25 0 -6 4 -3 -5 6 -19 16 -23 16 -26 1 -41 -30 -30 -115 -8 -115
29 0 31 -25 51 -44 36 -11 -9 -16 -9 -22 0 -8 13 21 39 43 39 8 0 25 -11 38
-25 25 -24 33 -55 15 -55 -5 0 -10 -5 -10 -12 0 -6 11 -1 24 11 15 14 30 20
37 16 8 -6 10 -4 5 4 -5 7 -14 10 -22 7 -18 -7 -28 12 -15 27 5 7 9 23 8 34
-1 17 -4 19 -14 11 -7 -6 -13 -18 -13 -26 0 -12 -3 -13 -12 -4 -9 9 -9 18 0
37 17 37 40 31 62 -17z"/>
</g>
</svg>
